PathFileType	4	(X/Y/Z)	C:/Users/opensim2020/Desktop/walking_exp_matlab/subject02/subject02_trc/subject02_walking16_run_cyclic.trc																																																																																																																																																							
DataRate	CameraRate	NumFrames	NumMarkers	Units	OrigDataRate	OrigDataStartFrame	OrigNumFrames																																																																																																																																																			
100	100	4	51	mm	100	175	60																																																																																																																																																			
Frame#	Time	RTOE			LSHO			LELB			RELB			RFIN			LTHI			LKNE			RWRB			RUPA			LTIB			RASI			LANK			LTOE			RSHO			RWRA			RFRM			LASI			STRN			LFHD			RTHI			RFHD			LWRB			LFIN			LUPA			RKNE			RBHD			LFRM			C7			LWRA			RTIB			CLAV			LHEE			RANK			LBHD			RBAK			RHEE			T10			LPSI			RPSI			*39			*40			*41			*42			*43			*44			*45			*46			*47			*48			*49			*50		
		X1	Y1	Z1	X2	Y2	Z2	X3	Y3	Z3	X4	Y4	Z4	X5	Y5	Z5	X6	Y6	Z6	X7	Y7	Z7	X8	Y8	Z8	X9	Y9	Z9	X10	Y10	Z10	X11	Y11	Z11	X12	Y12	Z12	X13	Y13	Z13	X14	Y14	Z14	X15	Y15	Z15	X16	Y16	Z16	X17	Y17	Z17	X18	Y18	Z18	X19	Y19	Z19	X20	Y20	Z20	X21	Y21	Z21	X22	Y22	Z22	X23	Y23	Z23	X24	Y24	Z24	X25	Y25	Z25	X26	Y26	Z26	X27	Y27	Z27	X28	Y28	Z28	X29	Y29	Z29	X30	Y30	Z30	X31	Y31	Z31	X32	Y32	Z32	X33	Y33	Z33	X34	Y34	Z34	X35	Y35	Z35	X36	Y36	Z36	X37	Y37	Z37	X38	Y38	Z38	X39	Y39	Z39	X40	Y40	Z40	X41	Y41	Z41	X42	Y42	Z42	X43	Y43	Z43	X44	Y44	Z44	X45	Y45	Z45	X46	Y46	Z46	X47	Y47	Z47	X48	Y48	Z48	X49	Y49	Z49	X50	Y50	Z50	X51	Y51	Z51
																																																																																																																																																										
9	0.08	-1904.55408	89.01637	64.90154	-1343.07983	1489.37549	-185.14168	-1461.84058	1332.55054	-454.327	-1301.88916	1212.44165	327.80963	-1097.88586	1257.34912	109.49816	-1311.30762	717.06067	-167.06892	-1255.42371	519.91974	-137.27695	-1124.73645	1204.66748	146.60858	-1337.43152	1350.53992	278.94049	-1255.09192	325.74457	-144.56142	-1379.34192	967.02997	142.98145	-1185.93042	108.93581	-111.30585	-1029.3894	109.03686	-83.9796	-1313.75452	1499.35095	144.56219	-1159.85022	1244.47168	127.12083	-1209.75586	1207.42517	240.70836	-1344.81262	1001.43188	-97.56073	-1269.41077	1256.4054	-13.09299	-1264.18298	1727.44824	-112.58215	-1578.23535	696.67676	175.45352	-1263.83167	1723.24829	32.99026	-1422.39856	1066.50256	-450.25107	-1388.28845	1009.85138	-432.00488	-1408.04065	1418.64355	-348.5629	-1651.96851	496.68692	127.797	-1392.23401	1622.88318	28.14902	-1443.99731	1192.07458	-466.74319	-1409.62708	1522.06653	-21.67349	-1390.32935	1081.31689	-404.12787	-1804.29187	383.22522	108.05617	-1279.76733	1438.22937	-36.94301	-1222.08777	73.83472	-65.6097	-1939.75781	253.28873	54.93525	-1379.69885	1631.11072	-114.63251	-1487.6123	1387.53381	73.85485	-1980.96973	246.94905	-12.01895	-1521.9397	1280.62573	15.29781	-1552.09766	1067.8418	-53.68509	-1561.34143	1067.55249	62.03223	NaN	NaN	NaN	2845.96704	1034.50488	-3357.19458	NaN	NaN	NaN	NaN	NaN	NaN	NaN	NaN	NaN	NaN	NaN	NaN	NaN	NaN	NaN	NaN	NaN	NaN	NaN	NaN	NaN	NaN	NaN	NaN	-1377.36292	1782.14417	-31.03824	NaN	NaN	NaN
10	0.09	-1872.1134	102.59269	75.33134	-1305.99756	1488.96265	-187.39915	-1431.05713	1317.88379	-447.77438	-1275.91492	1213.15356	327.84476	-1069.42126	1247.00671	109.7352	-1280.64197	712.76294	-170.86774	-1229.34375	515.6853	-136.59476	-1098.86243	1195.78857	146.89281	-1307.27234	1352.69128	279.05887	-1221.56812	322.75726	-140.09737	-1338.09875	972.43176	141.14816	-1145.8855	108.69125	-105.2015	-987.95453	109.9969	-83.95851	-1277.01245	1502.20959	145.68297	-1131.80591	1237.69092	127.38094	-1184.29834	1203.2041	240.30592	-1307.72925	1004.27905	-97.56615	-1232.27612	1260.21082	-14.20784	-1226.07092	1729.5979	-112.92423	-1531.9635	699.34375	178.11816	-1226.79419	1726.05249	32.24359	-1378.85571	1055.59155	-427.54004	-1340.40137	1002.22748	-406.78342	-1373.49243	1409.01685	-348.65176	-1606.33948	497.58478	132.90643	-1355.75415	1626.56445	27.21435	-1407.36169	1178.39465	-452.04663	-1373.09436	1524.84436	-22.16527	-1346.14661	1075.29297	-383.5939	-1762.46008	388.85736	111.16294	-1243.36194	1441.17554	-38.11904	-1179.44482	74.47453	-56.22894	-1902.16394	265.44339	55.67823	-1342.84814	1634.3855	-115.49857	-1450.64648	1390.05359	74.98	-1941.2533	258.40472	-12.85972	-1484.72314	1284.29565	17.49269	-1513.51172	1073.44189	-53.82979	-1521.9043	1073.96533	62.22316	NaN	NaN	NaN	2845.29346	1034.50854	-3360.46216	NaN	NaN	NaN	NaN	NaN	NaN	NaN	NaN	NaN	NaN	NaN	NaN	NaN	NaN	NaN	NaN	NaN	NaN	NaN	NaN	NaN	NaN	NaN	NaN	-1339.49023	1785.85779	-32.13575	NaN	NaN	NaN
11	0.1	-1832.87305	114.87358	84.30848	-1268.49438	1487.12244	-190.15695	-1399.02893	1300.40698	-440.0997	-1251.53894	1213.19849	327.50677	-1040.66809	1232.94299	112.06979	-1250.73572	707.1087	-175.05489	-1202.09314	512.3537	-134.93605	-1073.72498	1183.55322	148.83513	-1277.66516	1354.06348	279.16409	-1190.4585	321.39258	-135.68465	-1297.48181	976.80151	138.87386	-1116.39392	107.0692	-99.16891	-957.4046	106.48308	-84.26929	-1241.04578	1504.20459	147.49666	-1104.03638	1226.95105	128.34418	-1159.6825	1197.38025	241.58138	-1271.32605	1005.94525	-98.98059	-1195.41406	1263.36865	-14.93649	-1189.51538	1731.54565	-114.16308	-1485.21533	698.66846	180.52541	-1189.95496	1728.09399	31.63806	-1331.54077	1044.00708	-403.42688	-1289.26453	995.02844	-380.69788	-1339.57141	1396.34863	-348.25549	-1557.22705	497.03281	138.2336	-1319.16052	1628.86987	26.63244	-1367.76196	1162.95898	-435.08646	-1336.15173	1526.70728	-22.50428	-1299.03369	1068.76978	-361.93408	-1716.90112	393.84509	114.6217	-1207.03271	1443.08435	-39.06276	-1149.04907	74.84607	-48.20059	-1860.34985	276.14755	57.50013	-1305.64929	1636.2583	-116.15014	-1414.23352	1391.16687	75.34958	-1898.69128	267.60825	-12.13676	-1447.55737	1287.56628	18.79426	-1475.59448	1078.1543	-54.05523	-1483.37683	1079.18188	62.42622	NaN	NaN	NaN	2845.93677	1034.64124	-3357.2522	NaN	NaN	NaN	NaN	NaN	NaN	NaN	NaN	NaN	NaN	NaN	NaN	NaN	NaN	NaN	NaN	NaN	NaN	NaN	NaN	NaN	NaN	NaN	NaN	-1302.11023	1788.33398	-33.1143	NaN	NaN	NaN
12	0.11	-1788.26941	125.88158	92.28589	-1230.79065	1484.55688	-193.03403	-1365.13562	1280.40552	-431.05762	-1228.47217	1212.79614	326.99512	-1012.94287	1214.5022	114.87756	-1221.79297	700.86908	-179.60872	-1172.02124	510.42548	-132.52426	-1049.56909	1168.58643	152.45384	-1248.87573	1354.72058	279.13727	-1164.08801	319.86081	-130.91148	-1257.1864	980.26263	136.4993	-1095.96643	103.58388	-93.04408	-936.59039	99.70543	-82.82834	-1206.09509	1505.14307	149.79544	-1076.66858	1213.40784	130.4313	-1135.99658	1189.8429	243.14758	-1234.52844	1006.86993	-100.81631	-1158.38538	1265.16748	-15.77774	-1151.86316	1732.3877	-114.15234	-1437.77966	696.23376	183.42181	-1153.22644	1729.32581	31.16529	-1281.00256	1032.64612	-377.83667	-1234.84888	988.59619	-353.45789	-1305.87012	1381.80396	-346.44351	-1504.24695	494.36618	143.31226	-1282.28638	1629.922	26.07576	-1325.61719	1146.33093	-417.20215	-1298.78223	1527.65186	-22.71158	-1249.17615	1062.47351	-339.10541	-1667.02649	397.67947	118.6925	-1170.80823	1443.86011	-39.69767	-1128.44751	72.32794	-41.08213	-1814.27783	285.03513	60.71625	-1268.54346	1636.99316	-116.66928	-1377.9303	1391.35022	74.86305	-1854.04272	275.07419	-9.3865	-1410.5094	1290.12549	19.19383	-1438.06567	1081.43286	-54.01892	-1445.4436	1083.44019	63.05455	NaN	NaN	NaN	2845.86865	1034.70935	-3357.50586	NaN	NaN	NaN	NaN	NaN	NaN	NaN	NaN	NaN	NaN	NaN	NaN	NaN	NaN	NaN	NaN	NaN	NaN	NaN	NaN	NaN	NaN	NaN	NaN	-1265.23962	1789.33618	-33.99048	NaN	NaN	NaN
